<mxfile host="app.diagrams.net" modified="2021-07-05T10:08:38.516Z" agent="5.0 (Macintosh; Intel Mac OS X 10_15_7) AppleWebKit/537.36 (KHTML, like Gecko) Chrome/91.0.4472.114 Safari/537.36" etag="k0Us5LKH1-klOrujzT99" version="14.8.3" type="github">
  <diagram id="C5RBs43oDa-KdzZeNtuy" name="Page-1">
    <mxGraphModel dx="984" dy="743" grid="1" gridSize="10" guides="1" tooltips="1" connect="1" arrows="1" fold="1" page="1" pageScale="1" pageWidth="827" pageHeight="1169" math="0" shadow="0">
      <root>
        <mxCell id="WIyWlLk6GJQsqaUBKTNV-0" />
        <mxCell id="WIyWlLk6GJQsqaUBKTNV-1" parent="WIyWlLk6GJQsqaUBKTNV-0" />
        <mxCell id="mY9FPSq453opSmu5oag3-4" value="" style="edgeStyle=orthogonalEdgeStyle;rounded=0;orthogonalLoop=1;jettySize=auto;html=1;" edge="1" parent="WIyWlLk6GJQsqaUBKTNV-1" source="mY9FPSq453opSmu5oag3-1" target="mY9FPSq453opSmu5oag3-3">
          <mxGeometry relative="1" as="geometry" />
        </mxCell>
        <mxCell id="mY9FPSq453opSmu5oag3-5" value="suitable formats" style="edgeLabel;html=1;align=center;verticalAlign=middle;resizable=0;points=[];" vertex="1" connectable="0" parent="mY9FPSq453opSmu5oag3-4">
          <mxGeometry x="-0.4471" y="3" relative="1" as="geometry">
            <mxPoint x="21" y="3" as="offset" />
          </mxGeometry>
        </mxCell>
        <mxCell id="mY9FPSq453opSmu5oag3-8" value="" style="edgeStyle=orthogonalEdgeStyle;rounded=0;orthogonalLoop=1;jettySize=auto;html=1;" edge="1" parent="WIyWlLk6GJQsqaUBKTNV-1" source="mY9FPSq453opSmu5oag3-1" target="mY9FPSq453opSmu5oag3-7">
          <mxGeometry relative="1" as="geometry">
            <Array as="points">
              <mxPoint x="280" y="210" />
              <mxPoint x="280" y="210" />
            </Array>
          </mxGeometry>
        </mxCell>
        <mxCell id="mY9FPSq453opSmu5oag3-9" value="SARIMAX model" style="edgeLabel;html=1;align=center;verticalAlign=middle;resizable=0;points=[];" vertex="1" connectable="0" parent="mY9FPSq453opSmu5oag3-8">
          <mxGeometry x="-0.175" relative="1" as="geometry">
            <mxPoint as="offset" />
          </mxGeometry>
        </mxCell>
        <mxCell id="mY9FPSq453opSmu5oag3-1" value="Input Datasets" style="rounded=0;whiteSpace=wrap;html=1;fillColor=#dae8fc;strokeColor=#6c8ebf;" vertex="1" parent="WIyWlLk6GJQsqaUBKTNV-1">
          <mxGeometry x="200" y="120" width="160" height="40" as="geometry" />
        </mxCell>
        <mxCell id="mY9FPSq453opSmu5oag3-3" value="Documentation" style="shape=process;whiteSpace=wrap;html=1;backgroundOutline=1;rounded=0;size=0.06666666666666667;fillColor=#d5e8d4;strokeColor=#82b366;" vertex="1" parent="WIyWlLk6GJQsqaUBKTNV-1">
          <mxGeometry x="480" y="120" width="140" height="40" as="geometry" />
        </mxCell>
        <mxCell id="mY9FPSq453opSmu5oag3-13" value="" style="edgeStyle=orthogonalEdgeStyle;rounded=0;orthogonalLoop=1;jettySize=auto;html=1;" edge="1" parent="WIyWlLk6GJQsqaUBKTNV-1" source="mY9FPSq453opSmu5oag3-7" target="mY9FPSq453opSmu5oag3-12">
          <mxGeometry relative="1" as="geometry">
            <Array as="points">
              <mxPoint x="280" y="320" />
              <mxPoint x="120" y="320" />
            </Array>
          </mxGeometry>
        </mxCell>
        <mxCell id="mY9FPSq453opSmu5oag3-7" value="Unemployment Rate Prediction on Kreis-level" style="rounded=0;whiteSpace=wrap;html=1;fillColor=#dae8fc;strokeColor=#6c8ebf;" vertex="1" parent="WIyWlLk6GJQsqaUBKTNV-1">
          <mxGeometry x="135" y="230" width="300" height="40" as="geometry" />
        </mxCell>
        <mxCell id="mY9FPSq453opSmu5oag3-12" value="Visualization: &lt;br&gt;(1) line plot, &lt;br&gt;(2) map of Germany" style="rounded=0;whiteSpace=wrap;html=1;fillColor=#ffe6cc;strokeColor=#d79b00;" vertex="1" parent="WIyWlLk6GJQsqaUBKTNV-1">
          <mxGeometry x="50" y="360" width="130" height="80" as="geometry" />
        </mxCell>
        <mxCell id="mY9FPSq453opSmu5oag3-15" value="" style="edgeStyle=orthogonalEdgeStyle;rounded=0;orthogonalLoop=1;jettySize=auto;html=1;entryX=0.5;entryY=0;entryDx=0;entryDy=0;" edge="1" parent="WIyWlLk6GJQsqaUBKTNV-1" target="mY9FPSq453opSmu5oag3-16">
          <mxGeometry relative="1" as="geometry">
            <mxPoint x="280" y="270" as="sourcePoint" />
            <mxPoint x="286" y="360" as="targetPoint" />
            <Array as="points">
              <mxPoint x="280" y="270" />
            </Array>
          </mxGeometry>
        </mxCell>
        <mxCell id="mY9FPSq453opSmu5oag3-16" value="Output file: &lt;br&gt;(1) single excel, &lt;br&gt;(2) merged with csv" style="rounded=0;whiteSpace=wrap;html=1;fillColor=#dae8fc;strokeColor=#6c8ebf;" vertex="1" parent="WIyWlLk6GJQsqaUBKTNV-1">
          <mxGeometry x="210" y="360" width="140" height="80" as="geometry" />
        </mxCell>
        <mxCell id="mY9FPSq453opSmu5oag3-19" value="Selective output:&lt;br&gt;e.g. (1) east/west,&lt;br&gt;(2) weak regions" style="rounded=0;whiteSpace=wrap;html=1;fillColor=#fff2cc;strokeColor=#d6b656;" vertex="1" parent="WIyWlLk6GJQsqaUBKTNV-1">
          <mxGeometry x="380" y="360" width="140" height="80" as="geometry" />
        </mxCell>
        <mxCell id="mY9FPSq453opSmu5oag3-20" value="" style="edgeStyle=orthogonalEdgeStyle;rounded=0;orthogonalLoop=1;jettySize=auto;html=1;" edge="1" parent="WIyWlLk6GJQsqaUBKTNV-1">
          <mxGeometry relative="1" as="geometry">
            <mxPoint x="280" y="270" as="sourcePoint" />
            <mxPoint x="450" y="360" as="targetPoint" />
            <Array as="points">
              <mxPoint x="280" y="320" />
              <mxPoint x="450" y="320" />
              <mxPoint x="450" y="360" />
            </Array>
          </mxGeometry>
        </mxCell>
      </root>
    </mxGraphModel>
  </diagram>
</mxfile>
